<svg height="512" viewBox="0 0 28 60" width="512" xmlns="http://www.w3.org/2000/svg"><g id="Page-1" fill="none" fill-rule="evenodd"><g id="011---Straight-On-Arrow" fill="rgb(0,0,0)" fill-rule="nonzero"><path id="Shape" d="m7.583 59.4141c.37374307.3760866.88238904.5870562 1.4126.5859h.002l10-.0029c1.1041125-.0011025 1.9988975-.8958875 2-2v-36.9947h5c.7502124.0026591 1.4379163-.4175915 1.7778-1.0864.3395263-.6567468.2815587-1.4485071-.15-2.0488l-11.9794-17.0425c-.3771496-.51707425-.9781954-.82339147-1.6182-.8247h-.0009c-.6446992.00223947-1.2494223.31275994-1.6269.8354l-12.023 17.021c-.43570619.6061053-.49485299 1.4053056-.15311757 2.0689474.34173541.6636417 1.02666161 1.0796895 1.77311757 1.0770526h5v36.9976c-.00136336.5307119.20964821 1.0399124.586 1.4141zm-5.5791-40.3941 12.0151-17.0322 11.9781 17.0146h-6c-.5522847 0-1 .4477153-1 1l-.0005 37.9942-10 .0044v-37.9986c0-.5522847-.44771525-1-1-1z"/></g></g></svg>